<?xml version="1.0" encoding="UTF-8" standalone="no"?>
<!DOCTYPE svg PUBLIC "-//W3C//DTD SVG 1.1//EN" "http://www.w3.org/Graphics/SVG/1.1/DTD/svg11.dtd">
<svg width="100%" height="100%" viewBox="0 0 935 1226" version="1.1" xmlns="http://www.w3.org/2000/svg" xmlns:xlink="http://www.w3.org/1999/xlink" xml:space="preserve" xmlns:serif="http://www.serif.com/" style="fill-rule:evenodd;clip-rule:evenodd;stroke-linejoin:round;stroke-miterlimit:2;">
    <g>
        <path d="M636.603,904.926C636.593,904.917 636.581,904.91 636.566,904.908C636.563,904.907 636.56,904.908 636.558,904.91C636.556,904.912 636.554,904.915 636.554,904.918C636.659,938.678 654.162,970.016 682.887,987.769C711.658,1005.551 747.585,1007.167 777.837,992.041L847.189,957.365C887.685,937.117 913.266,895.727 913.266,850.451L913.266,850.448C913.265,848.472 914.651,846.766 916.585,846.362C918.52,845.958 920.472,846.966 921.263,848.778C930.015,869.728 934.762,892.529 934.762,916.05C934.762,981.89 897.563,1042.079 838.674,1071.524L531.323,1225.199C529.851,1225.935 528.104,1225.857 526.704,1224.992C525.305,1224.127 524.453,1222.599 524.453,1220.953L524.453,1014.448C524.453,1010.841 522.415,1007.543 519.188,1005.93C500.988,996.83 482.961,976.644 471.313,955.532C463.78,941.877 458.854,927.821 458.854,916.05C458.854,903.711 464.834,894.346 474.089,889.719C484.07,884.728 497.36,885.115 510.669,891.769C513.622,893.245 517.128,893.088 519.936,891.352C522.744,889.617 524.453,886.551 524.453,883.25L524.453,465.677C524.453,463.879 525.469,462.235 527.077,461.431L847.424,301.258C887.876,281.032 913.428,239.687 913.428,194.46C913.427,192.521 914.787,190.847 916.686,190.451C918.584,190.054 920.5,191.044 921.276,192.822C930.02,213.762 934.762,236.551 934.762,260.06C934.762,325.9 897.563,386.089 838.674,415.533L838.664,415.538L690.383,489.679C657.423,506.159 636.602,539.847 636.602,576.698L636.602,577.244C636.602,610.963 654.061,642.277 682.744,660.004C711.427,677.731 747.244,679.343 777.403,664.263L847.189,629.37C887.685,609.122 913.266,567.732 913.266,522.456L913.266,522.453C913.265,520.477 914.651,518.771 916.585,518.367C918.52,517.963 920.472,518.971 921.263,520.782C930.015,541.732 934.762,564.533 934.762,588.055C934.762,653.895 897.563,714.084 838.674,743.529L838.575,743.579L690.431,817.65C657.441,834.145 636.602,867.864 636.602,904.747L636.603,904.926Z" style="fill:#fcac18;"/>
        <path d="M505.065,456.857L505.065,863.575C505.065,864.879 504.488,866.115 503.489,866.953C502.49,867.79 501.172,868.142 499.888,867.915C487.19,865.669 475.213,867.48 465.418,872.378C449.964,880.105 439.466,895.444 439.466,916.05C439.466,930.567 445.047,948.057 454.338,964.897C466.303,986.585 484.341,1007.153 502.975,1018.986C504.269,1019.789 505.058,1021.204 505.058,1022.727L505.065,1220.953C505.065,1222.481 504.274,1223.9 502.974,1224.703C501.675,1225.506 500.052,1225.579 498.686,1224.896L2.437,976.771C0.943,976.024 0,974.498 0,972.829L0,595.065C0,593.297 1.057,591.699 2.685,591.008C4.313,590.317 6.196,590.665 7.469,591.894C36.979,620.446 67.613,625.943 92.946,613.277C108.683,605.408 118.765,588.49 121.912,566.772C126.14,537.599 117.882,499.495 96.742,467.785C81.714,445.243 66.323,435.179 51.295,431.873C36.277,428.569 21.16,432.316 6.082,438.538C4.724,439.096 3.176,438.941 1.956,438.123C0.735,437.305 0.003,435.933 0.003,434.464L0,203.281C0,201.611 0.943,200.085 2.437,199.338L299.314,50.9C435.047,-16.967 594.811,-16.967 730.543,50.9L838.753,105.005C872.637,121.946 894.04,156.578 894.04,194.461C894.04,232.343 872.637,266.975 838.753,283.916L510.517,448.034C507.176,449.705 505.065,453.121 505.065,456.857ZM348.058,1060.628C363.794,1052.759 373.877,1035.84 377.024,1014.123C381.252,984.95 372.994,946.847 351.854,915.136C330.996,883.849 297.604,858.843 266.734,847.579C244.353,839.413 223.16,838.625 208.037,846.186C192.3,854.055 182.219,870.974 179.071,892.691C174.843,921.865 183.101,959.968 204.241,991.678C225.1,1022.965 258.491,1047.972 289.361,1059.235C311.741,1067.401 332.935,1068.189 348.058,1060.628ZM289.743,267.637C254.737,250.135 184.727,250.135 149.723,267.637C146.381,269.308 144.27,272.723 144.27,276.459C144.27,290.977 149.851,308.467 159.142,325.307C172.718,349.913 194.109,373.074 215.322,383.68C234.924,393.481 254.542,393.081 269.243,385.73C282.66,379.022 292.339,366.576 294.66,349.929C294.827,348.694 295.511,347.585 296.541,346.882C318.943,331.483 318.778,305.767 308.856,287.194C304.174,278.43 297.253,271.392 289.743,267.637ZM446.549,84.09C447.003,99.289 476.33,115.396 505.204,116.304C534.077,117.211 562.497,102.92 562.043,87.721C561.589,72.522 532.262,56.415 503.388,55.508C474.515,54.6 446.095,68.892 446.549,84.09ZM500.307,243.66C500.085,252.054 504.432,260.692 513.172,268.105C528.642,281.226 559.281,291.262 590.314,290.478C621.121,289.699 652.097,278.286 668.162,264.467C677.013,256.854 681.654,248.215 681.869,240.09C682.09,231.695 677.743,223.057 669.003,215.644C653.533,202.523 622.895,192.487 591.861,193.272C561.055,194.05 530.079,205.464 514.013,219.283C505.163,226.895 500.521,235.535 500.307,243.66Z" style="fill:#fdcd4a;"/>
    </g>
</svg>
