<?xml version="1.0" encoding="UTF-8" standalone="no"?>
<!DOCTYPE svg PUBLIC "-//W3C//DTD SVG 1.1//EN" "http://www.w3.org/Graphics/SVG/1.1/DTD/svg11.dtd">
<svg width="100%" height="100%" viewBox="0 0 1003 1318" version="1.1" xmlns="http://www.w3.org/2000/svg" xmlns:xlink="http://www.w3.org/1999/xlink" xml:space="preserve" xmlns:serif="http://www.serif.com/" style="fill-rule:evenodd;clip-rule:evenodd;stroke-linejoin:round;stroke-miterlimit:2;">
    <g>
        <g>
            <path d="M320.324,54.593C465.905,-18.198 637.26,-18.198 782.84,54.593C819.394,72.869 857.863,92.104 896.332,111.338C961.618,143.982 1002.859,210.71 1002.859,283.703C1002.859,356.695 961.618,423.423 896.332,456.067C896.325,456.07 896.321,456.072 896.321,456.072C896.321,456.072 896.325,456.074 896.332,456.077C961.618,488.721 1002.859,555.449 1002.859,628.442C1002.859,701.434 961.618,768.162 896.332,800.806C896.325,800.809 896.321,800.811 896.321,800.811C896.321,800.811 896.325,800.813 896.332,800.816C961.618,833.46 1002.859,900.188 1002.859,973.18C1002.859,1046.173 961.618,1112.901 896.332,1145.545C723.959,1231.731 551.582,1317.919 551.582,1317.919L0,1042.128L0,593.968C0,593.968 34.474,576.731 34.474,542.257C34.474,507.783 0,490.546 0,490.546L0,214.755C0,214.755 169.311,130.099 320.324,54.593Z" style="fill:#fcac18;"/>
            <path d="M896.574,111.46C935.7,131.022 960.414,171.011 960.414,214.755C960.414,258.498 935.7,298.487 896.574,318.05C739.988,396.343 551.582,490.546 551.582,490.546L551.582,1317.919L0,1042.128L0,593.968C34.474,645.678 72.587,661.096 103.422,645.678C137.896,628.442 137.896,559.494 103.422,507.783C68.948,456.072 34.474,473.309 0,490.546L0,214.755C0,214.755 169.311,130.099 320.324,54.593C465.905,-18.198 637.26,-18.198 782.84,54.593C820.585,73.465 859.473,92.909 896.574,111.46Z" style="fill:#fdcd4a;"/>
            <path d="M896.328,662.912C935.5,643.326 960.244,603.289 960.244,559.494C960.244,515.698 935.5,475.661 896.328,456.075C896.323,456.073 896.321,456.072 896.321,456.072C896.321,456.072 801.719,503.373 740.471,533.997C709.219,549.623 689.478,581.565 689.478,616.505C689.478,616.696 689.478,616.887 689.478,617.079C689.478,649.049 706.032,678.741 733.228,695.548C760.424,712.356 794.383,713.884 822.979,699.587C846.463,687.845 871.395,675.378 896.328,662.912Z" style="fill:#f18e07;"/>
            <path d="M896.328,1007.651C935.5,988.065 960.244,948.028 960.244,904.233C960.244,860.437 935.5,820.4 896.328,800.814C896.323,800.812 896.321,800.811 896.321,800.811C896.321,800.811 801.771,848.086 740.521,878.711C709.238,894.352 689.478,926.326 689.478,961.301C689.478,961.303 689.478,961.305 689.478,961.307C689.478,993.387 706.088,1023.18 733.377,1040.045C760.666,1056.911 794.742,1058.444 823.435,1044.097C846.786,1032.422 871.557,1020.037 896.328,1007.651Z" style="fill:#f18e07;"/>
            <path d="M371.557,1115.866C337.083,1133.103 268.135,1098.63 233.661,1046.919C199.187,995.208 199.187,926.26 233.661,909.023C268.135,891.786 337.083,926.26 371.557,977.971C406.031,1029.682 406.031,1098.63 371.557,1115.866Z" style="fill:#fcac18;"/>
            <path d="M546.578,266.739C547.115,246.379 590.178,224.944 632.704,223.869C675.23,222.794 717.218,242.079 716.681,262.439C716.143,282.8 673.08,304.235 630.554,305.31C588.029,306.385 546.04,287.1 546.578,266.739Z" style="fill:#fcac18;"/>
            <path d="M525.534,405.033C525.534,398.52 538.558,392.008 551.582,392.008C564.607,392.008 577.631,398.52 577.631,405.033C577.631,411.545 564.607,418.057 551.582,418.057C538.558,418.057 525.534,411.545 525.534,405.033Z" style="fill:#fcac18;"/>
            <path d="M601.759,128.381C601.46,118.359 620.201,108.934 639.241,109.533C658.282,110.132 677.621,120.753 677.92,130.776C678.22,140.798 659.479,150.223 640.438,149.624C621.398,149.025 602.059,138.404 601.759,128.381Z" style="fill:#fcac18;"/>
            <path d="M391.46,130.003C391.818,116.43 420.527,102.14 448.877,101.423C477.228,100.707 505.22,113.563 504.862,127.137C504.503,140.71 475.794,155 447.444,155.717C419.093,156.434 391.101,143.577 391.46,130.003Z" style="fill:#fcac18;"/>
            <ellipse cx="382.811" cy="680.152" rx="61.451" ry="59.707" style="fill:#fcac18;"/>
            <path d="M310.265,300.94C330.821,311.218 344.739,352.65 310.265,369.887C310.265,404.361 275.791,421.598 241.317,404.361C206.843,387.124 172.369,335.413 172.369,300.94C206.843,283.703 275.791,283.703 310.265,300.94Z" style="fill:#fcac18;"/>
            <path d="M655.004,955.944C655.004,994.486 586.056,1059.365 551.582,1076.602C517.108,1059.365 482.635,1007.654 482.635,973.18C482.635,938.707 517.108,921.47 551.582,938.707C586.056,921.47 655.004,921.47 655.004,955.944Z" style="fill:#fcac18;"/>
        </g>
    </g>
</svg>
